<svg width="19" height="13" viewBox="0 0 19 13" fill="none" xmlns="http://www.w3.org/2000/svg">
<path d="M18.2083 0H2.90278C2.46624 0 2.11111 0.355161 2.11111 0.791667V1.05556H0.791667C0.354436 1.05556 0 1.40999 0 1.84722V11.0833C0 11.9578 0.708872 12.6667 1.58333 12.6667H18.2083C18.6448 12.6667 19 12.3115 19 11.875V0.791667C19 0.355161 18.6448 0 18.2083 0ZM1.05556 11.0833V2.11111H2.11111V11.0833C2.11111 11.3743 1.87434 11.6111 1.58333 11.6111C1.29233 11.6111 1.05556 11.3743 1.05556 11.0833ZM17.9444 11.6111H3.07622C3.13618 11.4416 3.16677 11.2631 3.16667 11.0833V1.05556H17.9444V11.6111ZM4.61806 8.44444H10.1597C10.3783 8.44444 10.5556 8.26721 10.5556 8.04861V2.50694C10.5556 2.28835 10.3783 2.11111 10.1597 2.11111H4.61806C4.39946 2.11111 4.22222 2.28835 4.22222 2.50694V8.04861C4.22222 8.26721 4.39946 8.44444 4.61806 8.44444ZM5.27778 3.16667H9.5V7.38889H5.27778V3.16667ZM4.22222 10.1597V9.89583C4.22222 9.67723 4.39946 9.5 4.61806 9.5H10.1597C10.3783 9.5 10.5556 9.67723 10.5556 9.89583V10.1597C10.5556 10.3783 10.3783 10.5556 10.1597 10.5556H4.61806C4.39946 10.5556 4.22222 10.3783 4.22222 10.1597ZM11.6111 10.1597V9.89583C11.6111 9.67723 11.7883 9.5 12.0069 9.5H16.4931C16.7117 9.5 16.8889 9.67723 16.8889 9.89583V10.1597C16.8889 10.3783 16.7117 10.5556 16.4931 10.5556H12.0069C11.7883 10.5556 11.6111 10.3783 11.6111 10.1597ZM11.6111 8.04861V7.78472C11.6111 7.56612 11.7883 7.38889 12.0069 7.38889H16.4931C16.7117 7.38889 16.8889 7.56612 16.8889 7.78472V8.04861C16.8889 8.26721 16.7117 8.44444 16.4931 8.44444H12.0069C11.7883 8.44444 11.6111 8.26721 11.6111 8.04861ZM11.6111 3.82639V3.5625C11.6111 3.3439 11.7883 3.16667 12.0069 3.16667H16.4931C16.7117 3.16667 16.8889 3.3439 16.8889 3.5625V3.82639C16.8889 4.04499 16.7117 4.22222 16.4931 4.22222H12.0069C11.7883 4.22222 11.6111 4.04499 11.6111 3.82639ZM11.6111 5.9375V5.67361C11.6111 5.45501 11.7883 5.27778 12.0069 5.27778H16.4931C16.7117 5.27778 16.8889 5.45501 16.8889 5.67361V5.9375C16.8889 6.1561 16.7117 6.33333 16.4931 6.33333H12.0069C11.7883 6.33333 11.6111 6.1561 11.6111 5.9375Z" fill="#941E2D"/>
</svg>
