<svg width="19" height="22" viewBox="0 0 19 22" fill="none" xmlns="http://www.w3.org/2000/svg">
<g clip-path="url(#clip0)">
<path d="M18.4037 8.22518L16.2034 6.02482C15.8216 5.64305 15.3038 5.42857 14.7639 5.42857H13.5714V3.39286C13.5714 2.26855 12.66 1.35714 11.5357 1.35714H8.70471C8.42459 0.567328 7.67032 0 6.78571 0C5.90111 0 5.14684 0.567328 4.86671 1.35714H2.03571C0.911406 1.35714 0 2.26855 0 3.39286V15.6071C0 16.7315 0.911406 17.6429 2.03571 17.6429H5.42857V19.6786C5.42857 20.8029 6.33998 21.7143 7.46429 21.7143H16.9643C18.0886 21.7143 19 20.8029 19 19.6786V9.66464C19 9.12473 18.7855 8.60694 18.4037 8.22518V8.22518ZM17.4441 9.1848C17.5311 9.27168 17.5926 9.38067 17.622 9.5H14.9286V6.80654C15.0479 6.83598 15.1569 6.8975 15.2437 6.98445L17.4441 9.1848V9.1848ZM6.78571 1.27232C7.20732 1.27232 7.54911 1.61411 7.54911 2.03571C7.54911 2.45732 7.20732 2.79911 6.78571 2.79911C6.36411 2.79911 6.02232 2.45732 6.02232 2.03571C6.02232 1.61411 6.36411 1.27232 6.78571 1.27232ZM2.03571 16.2857C1.66157 16.2857 1.35714 15.9813 1.35714 15.6071V3.39286C1.35714 3.01871 1.66157 2.71429 2.03571 2.71429H4.86671C5.14684 3.5041 5.90107 4.07143 6.78571 4.07143C7.67036 4.07143 8.42459 3.5041 8.70471 2.71429H11.5357C11.9099 2.71429 12.2143 3.01871 12.2143 3.39286V5.42857H7.46429C6.33998 5.42857 5.42857 6.33998 5.42857 7.46429V16.2857H2.03571ZM16.9643 20.3571H7.46429C7.09014 20.3571 6.78571 20.0527 6.78571 19.6786V7.46429C6.78571 7.09014 7.09014 6.78571 7.46429 6.78571H13.5714V9.83929C13.5714 10.3991 14.0295 10.8571 14.5893 10.8571H17.6429V19.6786C17.6429 20.0527 17.3384 20.3571 16.9643 20.3571Z" fill="#941E2D"/>
</g>
<defs>
<clipPath id="clip0">
<rect width="19" height="21.7143" fill="white"/>
</clipPath>
</defs>
</svg>
