<svg width="16" height="22" viewBox="0 0 16 22" fill="none" xmlns="http://www.w3.org/2000/svg">
<g clip-path="url(#clip0)">
<path d="M5.46667 13.3333H4.53333C4.26667 13.3333 4 13.6 4 13.8667V16.8C4 17.0667 4.26667 17.3333 4.53333 17.3333H5.46667C5.73333 17.3333 6 17.0667 6 16.8V13.8667C6 13.6 5.73333 13.3333 5.46667 13.3333ZM8.46667 10.6667H7.53333C7.26667 10.6667 7 10.9333 7 11.2V16.8C7 17.0667 7.26667 17.3333 7.53333 17.3333H8.46667C8.73333 17.3333 9 17.0667 9 16.8V11.2C9 10.9333 8.73333 10.6667 8.46667 10.6667ZM10.5333 17.3333H11.4667C11.7333 17.3333 12 17.0667 12 16.8V12.5333C12 12.2667 11.7333 12 11.4667 12H10.5333C10.2667 12 10 12.2667 10 12.5333V16.8C10 17.0667 10.2667 17.3333 10.5333 17.3333ZM15.4096 4.0825L11.9142 0.5875C11.5392 0.2125 11.0308 0 10.5021 0H1.99958C0.895833 0.00416667 0 0.9 0 2.00375V19.3338C0 20.4375 0.895833 21.3333 1.99958 21.3333H13.9971C15.1013 21.3333 16 20.4375 16 19.3338V5.49875C16 4.97 15.7846 4.4575 15.4096 4.0825ZM10.6646 2.16625L13.835 5.33625H10.6646V2.16625ZM14 19.3338H1.99958V2.00375H8.665V6.33625C8.665 6.89042 9.11083 7.33583 9.665 7.33583H14V19.3338Z" fill="#B31110"/>
</g>
<defs>
<clipPath id="clip0">
<rect width="16" height="21.3333" fill="white"/>
</clipPath>
</defs>
</svg>
